<svg xmlns="http://www.w3.org/2000/svg" viewBox="0 0 600 600" width="600" height="600">
<defs>
<linearGradient id="bg" x1="0" y1="0" x2="1" y2="1"><stop offset="0" stop-color="#f0f2f6"/><stop offset="1" stop-color="#dde2ea"/></linearGradient>
<linearGradient id="gloss" x1="0" y1="0" x2="1" y2="1"><stop offset="0" stop-color="#fff" stop-opacity=".38"/><stop offset=".5" stop-color="#fff" stop-opacity="0"/><stop offset="1" stop-color="#000" stop-opacity=".16"/></linearGradient>
<linearGradient id="scr" x1="0" y1="0" x2="1" y2="1"><stop offset="0" stop-color="#20344f"/><stop offset=".5" stop-color="#12203a"/><stop offset="1" stop-color="#0c1526"/></linearGradient>
<filter id="sh" x="-40%" y="-40%" width="180%" height="180%"><feDropShadow dx="0" dy="14" stdDeviation="16" flood-color="#0b1020" flood-opacity=".26"/></filter>
</defs>
<rect width="600" height="600" fill="url(#bg)"/><g filter="url(#sh)" transform="translate(300 300)">
  <ellipse rx="150" ry="46" cy="66" fill="#00000018"/>
  <path d="M-140 60 a140 140 0 0 1 280 0 z" fill="#e7eaf0"/>
  <path d="M-140 60 a140 140 0 0 1 280 0 z" fill="url(#gloss)"/>
  <rect x="-150" y="52" width="300" height="26" rx="13" fill="#c7ccd6"/>
  <circle cx="0" cy="4" r="52" fill="#12151b"/><circle cx="0" cy="4" r="36" fill="#0a0d13"/><circle cx="0" cy="4" r="21" fill="#16233d"/><circle cx="-12" cy="-8" r="8" fill="#8fbcff" opacity=".55"/>
</g></svg>